<svg xmlns="http://www.w3.org/2000/svg" viewBox="0 0 64 64" role="img" aria-labelledby="title">
  <title id="title">AWS</title>
  <rect width="64" height="64" rx="14" fill="#232f3e"/>
  <path fill="#fff" d="M18.3 34.3h-5.1l-.9 3.1H8l5.2-16.7h5.2l5.2 16.7h-4.4l-.9-3.1Zm-4.2-3.3h3.2l-1.6-5.7-1.6 5.7Zm23.1 6.4h-4.3l-2.1-9.8-2.1 9.8h-4.3l-4.1-16.7h4.4l2.1 10.6 2.2-10.6h3.7l2.3 10.6 2.1-10.6h4.2l-4.1 16.7Zm11.2.3c-2.7 0-5.1-.8-6.8-2.3l2.1-3c1.2 1 3 1.8 4.8 1.8 1.4 0 2.1-.5 2.1-1.3 0-2.3-8.5-.5-8.5-6.9 0-3.1 2.6-5.6 6.7-5.6 2.4 0 4.6.7 6.2 2l-2 3c-1.2-.9-2.7-1.4-4.3-1.4-1.2 0-1.9.5-1.9 1.3 0 2.1 8.6.5 8.6 6.8 0 3.4-2.8 5.6-7 5.6Z"/>
  <path fill="#ff9900" d="M44.8 43.4c-7.1 4.1-17.4 3.8-23.9-.7-.5-.4-.1-.9.4-.6 7.1 3.2 15.4 3.4 22.8-.3.7-.3 1.3.7.7 1.6Zm1.9-2.1c-.5-.6-3.2-.3-4.4-.1-.4.1-.5-.3-.1-.5 2.3-1.6 6-.9 6.4-.5.5.5-.1 4.1-2.2 5.8-.3.3-.7.1-.5-.3.5-1.2 1.4-3.8.8-4.4Z"/>
</svg>
