<svg xmlns="http://www.w3.org/2000/svg" viewBox="0 0 64 64" role="img" aria-labelledby="title">
  <title id="title">Docker</title>
  <path fill="#2496ed" d="M55.8 29.3c-.8-.6-3.2-1-5.1-.6-.3-2.1-1.6-3.9-3.7-5.4l-.8-.5-.5.9c-1 1.6-1.3 4.2-.3 6-1.2.7-3.1 1.1-5.6 1.1H7.5l-.2 1c-.5 3.2.1 6.1 1.8 8.5 2.8 3.9 7.7 5.7 15.5 5.7 15.3 0 26.6-7 31.8-15.8l.5-.8-1.1-.1Z"/>
  <path fill="#fff" d="M16 18h6v6h-6v-6Zm7 0h6v6h-6v-6Zm7 0h6v6h-6v-6ZM16 25h6v6h-6v-6Zm7 0h6v6h-6v-6Zm7 0h6v6h-6v-6Zm7 0h6v6h-6v-6ZM9 25h6v6H9v-6Z"/>
</svg>
