<svg xmlns="http://www.w3.org/2000/svg" viewBox="0 0 64 64" role="img" aria-labelledby="title">
  <title id="title">Node.js</title>
  <path fill="#83cd29" d="M32 4 8 17.8v28.4L32 60l24-13.8V17.8L32 4Z"/>
  <path fill="#fff" d="M22.4 42.8c0 1.7-1.1 2.5-2.8 2.5-1.5 0-2.5-.7-3.4-1.8l-2.7 2.7c1.5 1.9 3.6 3 6.4 3 4 0 6.8-2.1 6.8-6.5V27.1h-4.3v15.7Zm18.2-9.5c-3.5-.9-4.4-1.3-4.4-2.5 0-1 .9-1.8 2.7-1.8 1.8 0 3.7.8 5.6 2.1l2.2-3.2c-2.2-1.8-4.8-2.7-7.8-2.7-4.3 0-7.3 2.5-7.3 6.1 0 4 2.6 5.1 6.7 6.2 3.4.9 4.1 1.5 4.1 2.5 0 1.3-1.1 2-3.1 2-2.5 0-4.5-1-6.4-2.6l-2.5 3c2.5 2.3 5.7 3.4 8.8 3.4 4.5 0 7.7-2.3 7.7-6.3 0-3.6-2.4-5.1-6.3-6.2Z"/>
</svg>
