<svg xmlns="http://www.w3.org/2000/svg" viewBox="0 0 64 64" role="img" aria-labelledby="title">
  <title id="title">PostgreSQL</title>
  <rect width="64" height="64" rx="14" fill="#336791"/>
  <path fill="#fff" d="M45.2 17.4c-3.2-2.9-7.4-4.3-12.4-4.3-7 0-13.5 3.5-15.8 9-1.9 4.5-.8 9.7 2.9 13.8 1.7 1.9 3.8 3.2 6.1 4-.2 2.2-.1 4.7.8 7.5.3 1 1.1 1.8 2.2 2 1.1.2 2.1-.2 2.7-1.1 1.8-2.6 2.9-5.2 3.6-7.8h.7c5.8 0 10.5-1.9 13-5.4 3.5-4.9 1.9-13.5-3.8-17.7Zm-2.8 14.9c-1.4 2-4.4 3.2-8.1 3.2h-2.5l-.4 2.5c-.4 2.2-1 4.1-2 6-.3-2.3-.1-4.3.2-5.9l.6-2.7-2.6-.7c-1.6-.4-3-1.3-4.1-2.5-2.3-2.5-3-5.5-1.9-8.2 1.5-3.6 6.1-6 11.3-6 3.7 0 6.7 1 8.9 3 3.8 3.5 4.7 8.3.6 11.3Z"/>
  <circle cx="35.5" cy="26.5" r="2.5" fill="#336791"/>
</svg>
